<svg width="169" height="16" viewBox="0 0 169 16" fill="none" xmlns="http://www.w3.org/2000/svg">
<path d="M5.5 0.96C6.98 0.96 8.27333 1.25333 9.38 1.84C10.4867 2.42667 11.34 3.25333 11.94 4.32C12.5533 5.37333 12.86 6.59333 12.86 7.98C12.86 9.35333 12.5533 10.5733 11.94 11.64C11.34 12.7067 10.48 13.5333 9.36 14.12C8.25333 14.7067 6.96667 15 5.5 15H0.24V0.96H5.5ZM5.28 12.04C6.57333 12.04 7.58 11.6867 8.3 10.98C9.02 10.2733 9.38 9.27333 9.38 7.98C9.38 6.68667 9.02 5.68 8.3 4.96C7.58 4.24 6.57333 3.88 5.28 3.88H3.66V12.04H5.28ZM18.1913 3.7V6.54H22.7713V9.18H18.1913V12.26H23.3713V15H14.7713V0.96H23.3713V3.7H18.1913ZM25.0116 7.96C25.0116 6.57333 25.3116 5.34 25.9116 4.26C26.5116 3.16667 27.3449 2.32 28.4116 1.72C29.4916 1.10667 30.7116 0.799999 32.0716 0.799999C33.7382 0.799999 35.1649 1.24 36.3516 2.12C37.5382 3 38.3316 4.2 38.7316 5.72H34.9716C34.6916 5.13333 34.2916 4.68667 33.7716 4.38C33.2649 4.07333 32.6849 3.92 32.0316 3.92C30.9782 3.92 30.1249 4.28667 29.4716 5.02C28.8182 5.75333 28.4916 6.73333 28.4916 7.96C28.4916 9.18667 28.8182 10.1667 29.4716 10.9C30.1249 11.6333 30.9782 12 32.0316 12C32.6849 12 33.2649 11.8467 33.7716 11.54C34.2916 11.2333 34.6916 10.7867 34.9716 10.2H38.7316C38.3316 11.72 37.5382 12.92 36.3516 13.8C35.1649 14.6667 33.7382 15.1 32.0716 15.1C30.7116 15.1 29.4916 14.8 28.4116 14.2C27.3449 13.5867 26.5116 12.74 25.9116 11.66C25.3116 10.58 25.0116 9.34667 25.0116 7.96ZM47.4659 15.14C46.1459 15.14 44.9326 14.8333 43.8259 14.22C42.7326 13.6067 41.8593 12.7533 41.2059 11.66C40.5659 10.5533 40.2459 9.31333 40.2459 7.94C40.2459 6.56667 40.5659 5.33333 41.2059 4.24C41.8593 3.14667 42.7326 2.29333 43.8259 1.68C44.9326 1.06667 46.1459 0.76 47.4659 0.76C48.7859 0.76 49.9926 1.06667 51.0859 1.68C52.1926 2.29333 53.0593 3.14667 53.6859 4.24C54.3259 5.33333 54.6459 6.56667 54.6459 7.94C54.6459 9.31333 54.3259 10.5533 53.6859 11.66C53.0459 12.7533 52.1793 13.6067 51.0859 14.22C49.9926 14.8333 48.7859 15.14 47.4659 15.14ZM47.4659 12.02C48.5859 12.02 49.4793 11.6467 50.1459 10.9C50.8259 10.1533 51.1659 9.16667 51.1659 7.94C51.1659 6.7 50.8259 5.71333 50.1459 4.98C49.4793 4.23333 48.5859 3.86 47.4659 3.86C46.3326 3.86 45.4259 4.22667 44.7459 4.96C44.0793 5.69333 43.7459 6.68667 43.7459 7.94C43.7459 9.18 44.0793 10.1733 44.7459 10.92C45.4259 11.6533 46.3326 12.02 47.4659 12.02ZM63.7086 15L60.7886 9.7H59.9686V15H56.5486V0.96H62.2886C63.3953 0.96 64.3353 1.15333 65.1086 1.54C65.8953 1.92667 66.4819 2.46 66.8686 3.14C67.2553 3.80667 67.4486 4.55333 67.4486 5.38C67.4486 6.31333 67.1819 7.14667 66.6486 7.88C66.1286 8.61333 65.3553 9.13333 64.3286 9.44L67.5686 15H63.7086ZM59.9686 7.28H62.0886C62.7153 7.28 63.1819 7.12667 63.4886 6.82C63.8086 6.51333 63.9686 6.08 63.9686 5.52C63.9686 4.98667 63.8086 4.56667 63.4886 4.26C63.1819 3.95333 62.7153 3.8 62.0886 3.8H59.9686V7.28ZM78.3355 12.52H73.0955L72.2555 15H68.6755L73.7555 0.96H77.7155L82.7955 15H79.1755L78.3355 12.52ZM77.4555 9.88L75.7155 4.74L73.9955 9.88H77.4555ZM94.4416 0.96V3.7H90.7216V15H87.3016V3.7H83.5816V0.96H94.4416ZM99.578 3.7V6.54H104.158V9.18H99.578V12.26H104.758V15H96.158V0.96H104.758V3.7H99.578ZM123.377 0.96V15H119.957V9.22H114.637V15H111.217V0.96H114.637V6.46H119.957V0.96H123.377ZM132.485 15.14C131.165 15.14 129.952 14.8333 128.845 14.22C127.752 13.6067 126.879 12.7533 126.225 11.66C125.585 10.5533 125.265 9.31333 125.265 7.94C125.265 6.56667 125.585 5.33333 126.225 4.24C126.879 3.14667 127.752 2.29333 128.845 1.68C129.952 1.06667 131.165 0.76 132.485 0.76C133.805 0.76 135.012 1.06667 136.105 1.68C137.212 2.29333 138.079 3.14667 138.705 4.24C139.345 5.33333 139.665 6.56667 139.665 7.94C139.665 9.31333 139.345 10.5533 138.705 11.66C138.065 12.7533 137.199 13.6067 136.105 14.22C135.012 14.8333 133.805 15.14 132.485 15.14ZM132.485 12.02C133.605 12.02 134.499 11.6467 135.165 10.9C135.845 10.1533 136.185 9.16667 136.185 7.94C136.185 6.7 135.845 5.71333 135.165 4.98C134.499 4.23333 133.605 3.86 132.485 3.86C131.352 3.86 130.445 4.22667 129.765 4.96C129.099 5.69333 128.765 6.68667 128.765 7.94C128.765 9.18 129.099 10.1733 129.765 10.92C130.445 11.6533 131.352 12.02 132.485 12.02ZM157.468 0.96V15H154.048V6.58L150.908 15H148.148L144.988 6.56V15H141.568V0.96H145.608L149.548 10.68L153.448 0.96H157.468ZM163.348 3.7V6.54H167.928V9.18H163.348V12.26H168.528V15H159.928V0.96H168.528V3.7H163.348Z" fill="#F7515C"/>
</svg>
