<svg width="174" height="32" viewBox="0 0 174 32" fill="none" xmlns="http://www.w3.org/2000/svg">
<path d="M9.23438 31H0.953125V2.81641H20.7578V9.39844H9.23438V14.8086H19.6641V21.0195H9.23438V31ZM46.2305 9.4375V31H38.418V26.7617H38.2617C37.819 28.2591 37.0833 29.4115 36.0547 30.2188C35.0391 31.026 33.7435 31.4297 32.168 31.4297C29.7982 31.4297 27.8646 30.7005 26.3672 29.2422C24.8828 27.7708 24.1406 25.7786 24.1406 23.2656V9.4375H32.1484V21.4688C32.1484 22.5885 32.4284 23.4544 32.9883 24.0664C33.5482 24.6654 34.3034 24.9648 35.2539 24.9648C36.1523 24.9648 36.8685 24.6458 37.4023 24.0078C37.9492 23.3698 38.2227 22.5299 38.2227 21.4883V9.4375H46.2305ZM50.2383 31V9.4375H58.0508V13.6758H58.207C59.0143 10.6419 60.694 9.125 63.2461 9.125C63.9362 9.125 64.5612 9.22917 65.1211 9.4375V16.1562C64.418 15.8568 63.6432 15.707 62.7969 15.707C59.763 15.707 58.2461 17.224 58.2461 20.2578V31H50.2383ZM68.0352 31V9.4375H75.8477V13.6758H76.0039C76.5508 12.1523 77.3841 10.9935 78.5039 10.1992C79.6237 9.40495 80.9974 9.00781 82.625 9.00781C85.0339 9.00781 86.8828 9.72396 88.1719 11.1562C89.474 12.5755 90.125 14.5872 90.125 17.1914V31H82.1172V18.9688C82.1172 17.862 81.8568 17.0026 81.3359 16.3906C80.8281 15.7786 80.0794 15.4727 79.0898 15.4727C78.1523 15.4727 77.4102 15.7982 76.8633 16.4492C76.3164 17.0872 76.043 17.9206 76.043 18.9492V31H68.0352ZM94.0352 31V9.4375H102.043V31H94.0352ZM100.871 7.17188C100.116 7.88802 99.1719 8.24609 98.0391 8.24609C96.9062 8.24609 95.9557 7.88802 95.1875 7.17188C94.4323 6.44271 94.0547 5.53776 94.0547 4.45703C94.0547 3.3763 94.4323 2.47786 95.1875 1.76172C95.9557 1.03255 96.9062 0.667969 98.0391 0.667969C99.1719 0.667969 100.116 1.03255 100.871 1.76172C101.639 2.47786 102.023 3.3763 102.023 4.45703C102.023 5.53776 101.639 6.44271 100.871 7.17188ZM128.043 9.4375V31H120.23V26.7617H120.074C119.632 28.2591 118.896 29.4115 117.867 30.2188C116.852 31.026 115.556 31.4297 113.98 31.4297C111.611 31.4297 109.677 30.7005 108.18 29.2422C106.695 27.7708 105.953 25.7786 105.953 23.2656V9.4375H113.961V21.4688C113.961 22.5885 114.241 23.4544 114.801 24.0664C115.361 24.6654 116.116 24.9648 117.066 24.9648C117.965 24.9648 118.681 24.6458 119.215 24.0078C119.762 23.3698 120.035 22.5299 120.035 21.4883V9.4375H128.043ZM133.984 4.71094H141.992V9.4375H145.781V15.2383H141.992V23.207C141.992 24.5742 142.799 25.2578 144.414 25.2578C144.935 25.2578 145.391 25.2253 145.781 25.1602V30.707C144.831 30.9023 143.73 31 142.48 31C139.447 31 137.272 30.5312 135.957 29.5938C134.642 28.6562 133.984 27.1198 133.984 24.9844V15.2383H131.133V9.4375H133.984V4.71094ZM149.418 31V9.4375H157.23V13.6758H157.387C158.194 10.6419 159.874 9.125 162.426 9.125C163.116 9.125 163.741 9.22917 164.301 9.4375V16.1562C163.598 15.8568 162.823 15.707 161.977 15.707C158.943 15.707 157.426 17.224 157.426 20.2578V31H149.418ZM172.273 30.082C171.479 30.8763 170.522 31.2734 169.402 31.2734C168.283 31.2734 167.326 30.8763 166.531 30.082C165.737 29.2878 165.34 28.3307 165.34 27.2109C165.34 26.0911 165.737 25.1341 166.531 24.3398C167.326 23.5456 168.283 23.1484 169.402 23.1484C170.522 23.1484 171.479 23.5456 172.273 24.3398C173.068 25.1341 173.465 26.0911 173.465 27.2109C173.465 28.3307 173.068 29.2878 172.273 30.082Z" fill="#282A30"/>
</svg>
